# xmcd
#
# Track frame offsets: 
#        150
#        27857
#        44510
#        58687
#        77110
#        91325
#        105137
#        127022
#        149030
#        163907
#        199967
#        224987
#        246000
#        270922
#        292715
#        313182
#
# Disc length: 4467 seconds
#
# Revision: 1
# Processed by: cddbd v1.5.2PL0 Copyright (c) Steve Scherf et al.
# Submitted via: ExactAudioCopy v0.99pb4
#
DISCID=f0117110
DTITLE=Various Artist - American Folk Blues Festival '70
DYEAR=1998
DGENRE=Blues
TTITLE0=Introduction (Shakey Horton with the Chicago Blues Allstars: L
TTITLE0=ee Jackson, Lafayette Leak, Willie Dixon, Clifton James) 
TTITLE1=Hard Hearted Woman (Walter Horton)
TTITLE2=That Aint' It (Walter Horton)
TTITLE3=Magie Lee (Bukka White)
TTITLE4=World Boogie (Bukka White)
TTITLE5=Old Lady (Bukka White)
TTITLE6=Going To Louisiana (Champion Jack Dupree with Willie Dixon, Cl
TTITLE6=ifton James) 
TTITLE7=Blues Before Sunrise (Champion Jack Dupree with Willie Dixon, 
TTITLE7=Clifton James)
TTITLE8=Hootin' The Blues (Sonny Terry and Brownie McGhee)
TTITLE9=Back Water Blues (Sonny Terry and Brownie McGhee)
TTITLE10=Walk On (Sonny Terry and Brownie McGhee with Champion Jack Dupr
TTITLE10=ee, Willie Dixon, Clifton James)
TTITLE11=When I Was Drinking (Sonny Terry and Brownie McGhee)
TTITLE12=Juanita (Lee Jackson with The Chicago Blues Allstars)
TTITLE13=After Hours (Lafayette Leak with Willie Dixon, Clifton James)
TTITLE14=Crazy For My Baby (Willie Dixon with The Chicago Blues Allsta
TTITLE14=rs)
TTITLE15=Sittin' And Cryin' The Blues (Willie Dixon with The Chicago B
TTITLE15=lues Allstars)
EXTD=
EXTT0=
EXTT1=
EXTT2=
EXTT3=
EXTT4=
EXTT5=
EXTT6=
EXTT7=
EXTT8=
EXTT9=
EXTT10=
EXTT11=
EXTT12=
EXTT13=
EXTT14=
EXTT15=
PLAYORDER=
